<?xml version="1.0" encoding="utf-8"?>
<!-- Generator: Adobe Illustrator 16.0.0, SVG Export Plug-In . SVG Version: 6.00 Build 0)  -->
<!DOCTYPE svg PUBLIC "-//W3C//DTD SVG 1.1//EN" "http://www.w3.org/Graphics/SVG/1.1/DTD/svg11.dtd">
<svg version="1.1" id="Layer_1" xmlns="http://www.w3.org/2000/svg" xmlns:xlink="http://www.w3.org/1999/xlink" x="0px" y="0px"
	 width="454.498px" height="348.448px" viewBox="4.751 1 454.498 348.448" enable-background="new 4.751 1 454.498 348.448"
	 xml:space="preserve">
<g>
	<path id="Github__x28_alt_x29_" d="M336.579,1c5.909,13.42,9.737,35.705,4.025,52.021c23.357,19.941,31.386,68.423,20.112,108.042
		c33.287,2.539,72.938-1.223,98.533,8.992c-23.93-3.073-56.604-9.109-87.469-7.007c-5.847,0.397-14.507-0.223-14.083,8.002
		c35.725,2.808,71.222,5.858,100.557,15.013c-29.087-4.749-64.408-11.988-100.557-12.997
		c-14.933,29.464-44.988,43.953-86.472,47.001c4.457,9.7,13,13.394,15.09,29.01c3.107,23.317-4.872,57.473,2.999,73.017
		c3.776,7.447,9.932,7.645,14.086,14.012c-10.161,12.027-35.351-1.347-38.221-14.012c-4.912-21.688,7.484-55.317-6.019-70.018
		c0.949,23.651-5.601,56.881,1.007,78.017c2.596,8.312,10.111,11.521,8.039,19.012c-47.227,4.798-27.488-61.126-35.205-100.039
		c-7.127,0.509-3.994,10.672-4.022,15.012c-0.2,37.996,7.773,90.111-33.178,85.027c-1.195-7.984,5.495-10.7,8.045-17.996
		c7.468-21.377-1.398-53.23,2.027-79.032c-15.633,11.781,1.638,52.924-8.045,74.012c-5.581,12.142-23.566,17.428-37.204,12.005
		c1.775-9.034,11.11-7.576,15.07-15.999c5.531-11.741,0.04-28.652,2.013-46.012c-28.93,5.77-51.373-0.838-62.356-19.006
		c-4.912-8.156-6.132-17.78-12.068-25.004c-5.912-7.23-15.352-8.205-18.091-18c35.828-8.623,37.204,36.877,69.381,38.004
		c9.869,0.354,15.001-2.854,24.129-4.998c2.557-11.476,8.025-20.026,16.09-26.024c-40.039-5.472-73.108-17.945-88.486-47.993
		c-36.4,1.793-69.709,6.653-100.562,13.995c28.006-10.173,62.542-13.817,99.565-15.016c-2.184-13.111-21.308-9.503-33.181-8.997
		c-22.062,0.98-49.837,3.723-67.376,7.013c25.421-9.066,61.095-7.934,95.537-8.005c-10.535-33.026-6.884-85.49,16.087-105.028
		c-6.51-16.407-4.489-43.244,4.02-56.021c25.65,1.152,41.206,12.339,57.318,23.014c19.984-5.683,40.997-8.511,68.38-7.004
		c11.511,0.638,23.486,5.812,32.166,4.995c8.5-0.797,17.88-10.346,26.147-13.994C315.166,3.259,324.271,1.446,336.579,1z"/>
</g>
</svg>
