<?xml version="1.0" encoding="utf-8"?>
<!-- Generator: Adobe Illustrator 16.0.0, SVG Export Plug-In . SVG Version: 6.00 Build 0)  -->
<!DOCTYPE svg PUBLIC "-//W3C//DTD SVG 1.1//EN" "http://www.w3.org/Graphics/SVG/1.1/DTD/svg11.dtd">
<svg version="1.1" id="Layer_1" xmlns="http://www.w3.org/2000/svg" xmlns:xlink="http://www.w3.org/1999/xlink" x="0px" y="0px"
	 width="319.667px" height="351.568px" viewBox="0 0 319.667 351.568" enable-background="new 0 0 319.667 351.568"
	 xml:space="preserve">
<path fill="#FFFFFF" d="M317.112,169.637v-0.007h-28.351H61.383l159.74-107.74l-48.632,82.537l0,0
	c-0.194,0.367-0.314,0.779-0.314,1.229c0,1.409,1.146,2.562,2.562,2.562l0,0h19.329l0.008-0.015h45.867
	c0.27,0.007,0.532,0.015,0.802,0.015c24.634,0,44.607-19.974,44.607-44.604c0-22.709-16.969-41.458-38.922-44.249l32.621-55.367
	c0.277-0.412,0.442-0.906,0.442-1.438c0-1.412-1.146-2.559-2.562-2.559c-0.539,0-1.041,0.169-1.453,0.457V0.454l-30.134,20.322
	l-0.015,0.03L188.675,59.02H59.061l0,0c-1.371,0-2.487,1.087-2.548,2.442v0.108v17.97v68.624L1.273,185.423
	C0.517,185.873,0,186.697,0,187.641c0,1.408,1.146,2.554,2.562,2.554c0.007,0,0.015,0,0.022,0h28.312l0.06-0.037h227.378
	l-147.617,99.57l43.634-74.082c0.277-0.479,0.495-0.944,0.495-1.514c0-1.379-1.102-2.51-2.48-2.547l0,0H59.068l0,0
	c-1.409,0-2.547,1.146-2.547,2.555h-0.008v84.083h0.008c0,1.387,1.116,2.518,2.502,2.547h21.375l-27.579,46.811h0.008
	c-0.277,0.404-0.435,0.899-0.435,1.423c0,1.409,1.146,2.562,2.562,2.562c0.554,0,1.063-0.18,1.483-0.479L131,300.795
	c17.352,0.006,109.288,0,109.745,0c24.634,0,44.607-19.967,44.607-44.61c0-18.482-11.245-34.344-27.271-41.109l60.199-40.599
	c0.824-0.427,1.387-1.282,1.387-2.278C319.667,170.783,318.528,169.637,317.112,169.637z M240.49,79.548
	c0.082-0.004,0.172-0.007,0.255-0.007c13.298,0,24.072,10.777,24.072,24.072c0,13.294-10.774,24.076-24.072,24.076
	c-0.083,0-0.173-0.007-0.255-0.015l-34.321,0.015l28.365-48.141H240.49z M77.034,79.541h81.223l-81.223,54.786V79.541z
	 M77.034,280.245V232.1h43.807l-28.358,48.145H77.034z M264.817,256.186c0,13.299-10.774,24.073-24.072,24.073v-0.014h-79.282
	l71.362-48.131h7.92C254.043,232.114,264.817,242.888,264.817,256.186z"/>
</svg>
