
<svg width="318px" height="248px" viewBox="0 0 318 248" version="1.1" xmlns="http://www.w3.org/2000/svg" xmlns:xlink="http://www.w3.org/1999/xlink">
  <defs>
    <linearGradient x1="50%" y1="0%" x2="50%" y2="100%" id="linearGradient-2">
      <stop stop-color="#FFFFFF" stop-opacity="0.5" offset="0%"></stop>
      <stop stop-color="#000000" stop-opacity="0.5" offset="100%"></stop>
    </linearGradient>
    <path d="M62.5244687,29.0122927 L93.5261034,55.4951834 L129.979776,19.0643396 L132.315445,0 L62.5244687,29.0122927 Z M137.020224,19.0707659 L172.932423,54.9579426 L203.701262,28.5701615 L134.699989,0.133667587 L137.020224,19.0707659 Z M179.067413,61.0873726 L219.006583,100.998715 L179.372233,140.602878 L205.822142,171.52122 L235,100.843198 L205.586775,30.21016 L179.067413,61.0873726 Z M32,101.156802 L61.2884676,171.510937 L87.6779274,140.658145 L47.992131,100.998715 L87.4502769,61.5667765 L61.0659617,30.7216955 L32,101.156802 Z M137.461377,182.483247 L134.671693,202 L204.071677,173.148365 L173.196086,146.776008 L137.461377,182.483247 Z M62.99649,173.309024 L132.307728,201.871473 L129.537337,182.490959 L93.9196688,146.895537 L62.99649,173.309024 Z" id="path-3"></path>
    <path d="M136.617847,97.6561129 L136.617847,68.418723 L145.106135,60.0003844 L161.536121,60.0003844 L170.678249,69.0645134 L170.678249,85.3540628 L159.251558,85.3540628 L159.251558,77.4790081 C159.356224,73.4876649 157.622128,71.4400994 154.141012,71.3324677 C150.327808,71.2222733 148.589835,73.2711201 148.698377,77.4790081 L148.698377,89.5645134 L171,104.020479 L171,132.938818 L161.860457,141.999103 L145.651432,141.999103 L136.944767,133.371908 L136.944767,114.701647 L148.698377,114.701647 L148.698377,124.198866 C148.805628,128.409316 150.544893,130.563232 154.141012,130.456882 C157.399874,130.456882 159.037058,128.409316 159.037058,124.198866 L159.037058,111.465007 L136.617847,97.6561129 Z M92,112.221889 L103.748442,112.221889 L103.748442,124.630289 C103.748442,129.056004 105.597542,131.212482 109.302203,131.212482 C113.107654,131.320114 115.066589,129.056004 115.066589,124.41887 L115.066589,60 L127.141951,60 L127.141951,131.107413 L116.150723,142 L102.440762,142 L92,131.643009 L92,112.221889 Z" id="path-4"></path>
    <polygon id="path-5" points="68.8660686 81 0 81 0 121 68.8660686 121 89 101.000641"></polygon>
    <polygon id="path-6" points="199.135221 121 268 121 268 81 199.135221 81 179 101.000641"></polygon>
  </defs>
  <g id="Version-3" stroke="none" stroke-width="1" fill="none" fill-rule="evenodd">
    <g id="Artboard" transform="translate(-76.000000, -51.000000)">
      <g id="Logo" transform="translate(101.000000, 68.000000)">
        <g id="Fill-1">
          <use fill="#F0592B" xlink:href="#path-3"></use>
          <use fill-opacity="0.4" fill="url(#linearGradient-2)" style="mix-blend-mode: overlay;" xlink:href="#path-3"></use>
        </g>
        <g id="JS">
          <use fill="#3C3C43" xlink:href="#path-4"></use>
          <use fill-opacity="0.8" fill="url(#linearGradient-2)" style="mix-blend-mode: overlay;" xlink:href="#path-4"></use>
        </g>
        <g id="Gem-Arrow">
          <use fill="#3C3C43" xlink:href="#path-5"></use>
          <use fill-opacity="0.7" fill="url(#linearGradient-2)" style="mix-blend-mode: overlay;" xlink:href="#path-5"></use>
        </g>
        <path d="M48.0145204,94.3140521 L52.1401095,94.3140521 L54.9907018,102.386222 L55.0250923,102.386222 L57.892243,94.3140521 L62,94.3140521 L62,106.685184 L59.2729589,106.685184 L59.2729589,97.1974246 L59.2385683,97.1974246 L55.9854796,106.685184 L53.9054897,106.685184 L50.7759521,97.1974246 L50.7415616,97.1974246 L50.7415616,106.685184 L48.0145204,106.685184 L48.0145204,94.3140521 Z M32.7378678,94.3140521 L41.1469876,94.3140521 L41.1469876,96.8307971 L35.4649089,96.8307971 L35.4649089,99.1374951 L40.832378,99.1374951 L40.832378,101.652967 L35.4649089,101.652967 L35.4649089,104.169712 L41.4615972,104.169712 L41.4615972,106.685184 L32.7378678,106.685184 L32.7378678,94.3140521 Z M25.8698255,105.811007 C24.2611132,106.649922 22.495733,107 20.6768565,107 C16.8136543,107 14,104.465433 14,100.5 C14,96.5332942 16.8136543,94 20.6768565,94 C22.6358426,94 24.3668323,94.4366432 25.6074385,95.5899922 L23.6853904,97.6866432 C22.9504522,96.9177438 22.058846,96.515472 20.6768565,96.515472 C18.3523118,96.515472 16.8314864,98.193302 16.8314864,100.5 C16.8314864,102.806698 18.3523118,104.483255 20.6768565,104.483255 C21.8665138,104.483255 22.7402879,104.150999 23.2472297,103.872209 L23.2472297,101.862123 L21.0271303,101.862123 L21.0271303,99.346651 L25.8698255,99.346651 L25.8698255,105.811007 Z" id="GEM" fill="#FFFFFF"></path>
        <g id="City-Arrow">
          <use fill="#3C3C43" xlink:href="#path-6"></use>
          <use fill-opacity="0.7" fill="url(#linearGradient-2)" style="mix-blend-mode: overlay;" xlink:href="#path-6"></use>
        </g>
        <path d="M248.532566,101.408892 L243.826742,94.3137009 L247.26006,94.3137009 L249.913371,98.9440995 L252.726551,94.3137009 L256,94.3137009 L251.294176,101.408892 L251.294176,106.686044 L248.532566,106.686044 L248.532566,101.408892 Z M233.298074,96.7260405 L229.724226,96.7260405 L229.724226,94.3134463 L239.633531,94.3134463 L239.633531,96.7260405 L236.059683,96.7260405 L236.059683,106.68579 L233.298074,106.68579 L233.298074,96.7260405 Z M221.178965,106.686808 L221.178965,94.3144648 L223.940575,94.3144648 L223.940575,106.686808 L221.178965,106.686808 Z M212.864999,97.5291352 C212.31706,96.8823817 211.520294,96.5157183 210.494037,96.5157183 C208.405425,96.5157183 206.867329,98.1937127 206.867329,100.499363 C206.867329,102.80756 208.405425,104.484282 210.405078,104.484282 C211.520294,104.484282 212.42278,103.995397 212.990058,103.1564 L215.288821,104.850945 C214.244514,106.318872 212.47564,107 210.758337,107 C206.84799,107 204,104.466458 204,100.499363 C204,96.5335423 206.84799,94 210.758337,94 C212.157191,94 213.927355,94.4710606 214.988421,95.8167662 L212.864999,97.5291352 Z" id="CITY" fill="#FFFFFF"></path>
      </g>
    </g>
  </g>
</svg>
