<?xml version="1.0" encoding="utf-8"?>
<!-- Generated by IcoMoon.io -->
<!DOCTYPE svg PUBLIC "-//W3C//DTD SVG 1.1//EN" "http://www.w3.org/Graphics/SVG/1.1/DTD/svg11.dtd">
<svg version="1.1" xmlns="http://www.w3.org/2000/svg" xmlns:xlink="http://www.w3.org/1999/xlink" width="19" height="16" viewBox="0 0 19 16">
<path fill="#000000" d="M18.39 2.001l-10.22 0.011 0.002-1.971-5.449-0.041v2.001h-1.359c-0.752 0-1.363 0.598-1.363 1.335v11.342c0 0.736 0.61 1.334 1.363 1.334h17.030c0.752 0 1.362-0.598 1.362-1.334v-11.342c-0.001-0.737-0.613-1.335-1.365-1.335zM4.085 1.334h2.726v2.002h-2.726v-2.002zM7.491 13.983c-2.633 0-4.768-2.092-4.768-4.671s2.137-4.669 4.768-4.669 4.768 2.091 4.768 4.669c0.002 2.579-2.135 4.671-4.768 4.671zM16.688 6.351c-0.756 0-1.363-0.599-1.363-1.334 0-0.737 0.608-1.334 1.363-1.334 0.753 0 1.359 0.598 1.359 1.334 0.002 0.737-0.607 1.334-1.359 1.334zM7.491 6.421c-1.693 0-3.065 1.346-3.065 3.001 0 1.66 1.372 3.002 3.065 3.002s3.064-1.347 3.064-3.002c0.001-1.656-1.371-3.001-3.064-3.001z"></path>
</svg>
