<?xml version="1.0" encoding="utf-8"?>
<!-- Generated by IcoMoon.io -->
<!DOCTYPE svg PUBLIC "-//W3C//DTD SVG 1.1//EN" "http://www.w3.org/Graphics/SVG/1.1/DTD/svg11.dtd">
<svg version="1.1" xmlns="http://www.w3.org/2000/svg" xmlns:xlink="http://www.w3.org/1999/xlink" width="58" height="44" viewBox="0 0 21 16">
<path fill="#e0562f" d="M15.475 0.046c0.272 0.617 0.448 1.642 0.185 2.392 1.074 0.917 1.443 3.146 0.925 4.967 1.53 0.117 3.353-0.056 4.53 0.413-1.1-0.141-2.602-0.419-4.022-0.322-0.269 0.018-0.667-0.010-0.648 0.368 1.643 0.129 3.275 0.269 4.623 0.69-1.337-0.218-2.961-0.551-4.623-0.598-0.687 1.355-2.068 2.021-3.976 2.161 0.205 0.446 0.598 0.616 0.694 1.334 0.143 1.072-0.224 2.642 0.138 3.357 0.174 0.342 0.457 0.351 0.648 0.644-0.467 0.553-1.625-0.062-1.757-0.644-0.226-0.997 0.344-2.543-0.277-3.219 0.044 1.087-0.258 2.615 0.046 3.587 0.119 0.382 0.465 0.53 0.37 0.874-2.171 0.221-1.264-2.81-1.619-4.599-0.328 0.023-0.184 0.491-0.185 0.69-0.009 1.747 0.357 4.143-1.525 3.909-0.055-0.367 0.253-0.492 0.37-0.827 0.343-0.983-0.064-2.447 0.093-3.634-0.719 0.542 0.075 2.433-0.37 3.403-0.257 0.558-1.083 0.801-1.711 0.552 0.082-0.415 0.511-0.348 0.693-0.736 0.254-0.54 0.002-1.317 0.093-2.116-1.33 0.265-2.362-0.039-2.867-0.874-0.226-0.375-0.282-0.817-0.555-1.15-0.272-0.332-0.706-0.377-0.832-0.828 1.647-0.396 1.711 1.696 3.19 1.747 0.454 0.016 0.69-0.131 1.109-0.23 0.118-0.528 0.369-0.921 0.74-1.197-1.841-0.252-3.361-0.825-4.068-2.207-1.674 0.082-3.205 0.306-4.624 0.643 1.288-0.468 2.876-0.635 4.578-0.69-0.1-0.603-0.98-0.437-1.526-0.414-1.014 0.045-2.291 0.171-3.098 0.322 1.169-0.417 2.809-0.365 4.393-0.368-0.484-1.518-0.317-3.931 0.74-4.829-0.299-0.754-0.206-1.988 0.185-2.576 1.179 0.053 1.895 0.567 2.635 1.058 0.919-0.261 1.885-0.391 3.144-0.322 0.529 0.029 1.080 0.267 1.479 0.23 0.391-0.037 0.822-0.476 1.202-0.643 0.495-0.219 0.913-0.302 1.479-0.323z"></path>
</svg>
