<?xml version="1.0" encoding="utf-8"?>
<!-- Generated by IcoMoon.io -->
<!DOCTYPE svg PUBLIC "-//W3C//DTD SVG 1.1//EN" "http://www.w3.org/Graphics/SVG/1.1/DTD/svg11.dtd">
<svg version="1.1" xmlns="http://www.w3.org/2000/svg" xmlns:xlink="http://www.w3.org/1999/xlink" width="55" height="44" viewBox="0 0 20 16">
<path fill="#e0562f" d="M12.298 0.19c-1.773 0.638-2.894 2.284-2.766 4.085l0.043 0.695-0.709-0.085c-2.582-0.326-4.837-1.433-6.752-3.291l-0.936-0.922-0.241 0.681c-0.511 1.518-0.184 3.121 0.879 4.199 0.567 0.596 0.44 0.681-0.539 0.326-0.34-0.113-0.638-0.199-0.667-0.156-0.099 0.099 0.241 1.39 0.511 1.901 0.369 0.709 1.121 1.404 1.943 1.816l0.695 0.326-0.823 0.014c-0.794 0-0.823 0.014-0.738 0.312 0.284 0.922 1.404 1.901 2.652 2.326l0.879 0.298-0.766 0.454c-1.135 0.652-2.468 1.021-3.801 1.050-0.638 0.014-1.163 0.071-1.163 0.113 0 0.142 1.73 0.936 2.738 1.248 3.021 0.922 6.61 0.525 9.305-1.050 1.915-1.121 3.83-3.348 4.723-5.504 0.482-1.149 0.965-3.248 0.965-4.255 0-0.652 0.043-0.738 0.837-1.518 0.468-0.454 0.908-0.95 0.993-1.092 0.142-0.27 0.128-0.27-0.596-0.028-1.206 0.426-1.376 0.369-0.78-0.27 0.44-0.454 0.965-1.277 0.965-1.518 0-0.043-0.213 0.028-0.454 0.156-0.255 0.142-0.823 0.355-1.248 0.482l-0.766 0.241-0.695-0.468c-0.383-0.255-0.922-0.539-1.206-0.624-0.723-0.199-1.83-0.17-2.482 0.057z"></path>
</svg>
