<?xml version="1.0" encoding="utf-8"?>
<!-- Generated by IcoMoon.io -->
<!DOCTYPE svg PUBLIC "-//W3C//DTD SVG 1.1//EN" "http://www.w3.org/Graphics/SVG/1.1/DTD/svg11.dtd">
<svg version="1.1" xmlns="http://www.w3.org/2000/svg" xmlns:xlink="http://www.w3.org/1999/xlink" width="12" height="16" viewBox="0 0 12 16">
<path fill="#7d7d7d" d="M12.305 8.581l-2.676-1.073v-2.145l2.676-1.073c0.295 0 0.535 0.24 0.535 0.536v3.218c0 0.297-0.239 0.537-0.535 0.537zM7.223 4.827c-1.329 0-2.407-1.080-2.407-2.414s1.077-2.414 2.407-2.414c1.33 0 2.407 1.080 2.407 2.414s-1.077 2.414-2.407 2.414zM2.407 4.827c-1.329 0-2.407-1.081-2.407-2.414s1.078-2.414 2.407-2.414c1.33 0 2.407 1.080 2.407 2.414s-1.077 2.414-2.407 2.414zM9.095 4.827v4.827h-2.987c-0.027 0.444-0.222 0.828-0.512 1.047h0.302l2.135 4.815h-0.532l-0.712-1.605-1.424 0v2.675h-0.533v-2.675h-1.445l-0.723 1.605-0.532-0 2.168-4.815h0.202c-0.289-0.218-0.484-0.602-0.511-1.047h-3.455v-4.827h8.559zM4.832 10.866c-0.022-0.006-0.042-0.017-0.063-0.025l-1.141 2.533h1.204v-2.508zM5.366 10.827v2.548h1.186l-1.137-2.566c-0.016 0.007-0.033 0.012-0.049 0.018z"></path>
</svg>
